# Alias OBJ Model File
# Exported from SketchUp, (c) 2000-2012 Trimble Navigation Limited
# File units = inches

mtllib SOFA.mtl

g Mesh1 Model

usemtl Carpet_Berber_Pattern_Gray
v 5.72 0 13.5395
vt -0.572 -1.35395
vn 0 -1 -0
v 4.95549 0 30.0741
vt -0.495549 -3.00741
v 4.27782 0 12.0973
vt -0.427782 -1.20973
f 1/1/1 2/2/1 3/3/1

v 5.38784 0 28.4606
vt -0.538784 -2.84606
f 2/2/1 1/1/1 4/4/1

v 6.56904 0 27.2794
vt -0.656904 -2.72794
f 4/4/1 1/1/1 5/5/1

v 7.69007 0 14.0674
vt -0.769007 -1.40674
f 5/5/1 1/1/1 6/6/1

usemtl FrontColor
v 11.6302 0 10.1272
vt -11.6302 -10.1272
v 11.1023 0 12.0973
vt -11.1023 -12.0973
v 9.66013 0 13.5395
vt -9.66013 -13.5395
vt -7.69007 -14.0674
vt -5.72 -13.5395
vt -4.27782 -12.0973
v 3.74994 0 10.1272
vt -3.74994 -10.1272
v 4.27782 0 8.15718
vt -4.27782 -8.15718
v 5.72 0 6.71499
vt -5.72 -6.71499
v 7.69007 0 6.18712
vt -7.69007 -6.18712
v 9.66013 0 6.71499
vt -9.66013 -6.71499
v 11.1023 0 8.15718
vt -11.1023 -8.15718
f 7/7/1 8/8/1 9/9/1 6/10/1 1/11/1 3/12/1 10/13/1 11/14/1 12/15/1 13/16/1 14/17/1 15/18/1 

usemtl Carpet_Berber_Pattern_Gray
v 11.4097 0 30.0741
vt -1.14097 -3.00741
vt -1.11023 -1.20973
vt -1.16302 -1.01272
f 16/19/1 8/20/1 7/21/1

v 10.9773 0 28.4606
vt -1.09773 -2.84606
f 17/22/1 8/20/1 16/19/1

v 9.79612 0 27.2794
vt -0.979612 -2.72794
f 18/23/1 8/20/1 17/22/1

vt -0.966013 -1.35395
f 18/23/1 9/24/1 8/20/1

v 8.18258 0 26.847
vt -0.818258 -2.6847
f 19/25/1 9/24/1 18/23/1

f 19/25/1 6/6/1 9/24/1

f 5/5/1 6/6/1 19/25/1

usemtl FrontColor
vt -8.18258 -26.847
vt -9.79612 -27.2794
vt -10.9773 -28.4606
vt -11.4097 -30.0741
v 10.9773 0 31.6877
vt -10.9773 -31.6877
v 9.79612 0 32.8688
vt -9.79612 -32.8688
v 8.18258 0 33.3012
vt -8.18258 -33.3012
v 6.56904 0 32.8688
vt -6.56904 -32.8688
v 5.38784 0 31.6877
vt -5.38784 -31.6877
vt -4.95549 -30.0741
vt -5.38784 -28.4606
vt -6.56904 -27.2794
f 19/26/1 18/27/1 17/28/1 16/29/1 20/30/1 21/31/1 22/32/1 23/33/1 24/34/1 2/35/1 4/36/1 5/37/1 

usemtl Wood_Cherry_Original
vt 0.281616 0.0694444
vn -5.74694e-17 0 -1
vt 0.258148 0.0694444
vn 0.5 0 -0.866025
v 9.79612 -5 27.2794
vt 0.258148 0
v 8.18258 -5 26.847
vt 0.281616 0
f 19/38/2 18/39/3 25/40/3 26/41/2 

vt 0.23468 0.0694444
vn 0.866025 0 -0.5
v 10.9773 -5 28.4606
vt 0.23468 0
f 18/39/3 17/42/4 27/43/4 25/40/3 

vt 0.211212 0.0694444
vn 1 0 2.87347e-16
v 11.4097 -5 30.0741
vt 0.211212 0
f 17/42/4 16/44/5 28/45/5 27/43/4 

vt 0.187744 0.0694444
vn 0.866025 0 0.5
v 10.9773 -5 31.6877
vt 0.187744 0
f 16/44/5 20/46/6 29/47/6 28/45/5 

usemtl Carpet_Berber_Pattern_Gray
v 172 0 37
vt -17.2 -3.7
vt -1.09773 -3.16877
f 30/48/1 20/49/1 16/19/1

vt -0.979612 -3.28688
f 30/48/1 21/50/1 20/49/1

vt -0.818258 -3.33012
f 30/48/1 22/51/1 21/50/1

v 0 0 37
vt 0 -3.7
f 31/52/1 22/51/1 30/48/1

vt -0.656904 -3.28688
f 22/51/1 31/52/1 23/53/1

vt -0.538784 -3.16877
f 23/53/1 31/52/1 24/54/1

f 24/54/1 31/52/1 2/2/1

vt -0.374994 -1.01272
f 2/2/1 31/52/1 10/55/1

v 0 0 -0
vt 0 0
f 32/56/1 10/55/1 31/52/1

vt -0.427782 -0.815718
f 10/55/1 32/56/1 11/57/1

vt -0.572 -0.671499
f 11/57/1 32/56/1 12/58/1

vt -0.769007 -0.618712
f 12/58/1 32/56/1 13/59/1

v 172 0 -0
vt -17.2 0
f 13/59/1 32/56/1 33/60/1

vn 0 0 -1
v 0 10 -0
vt 0 1
v 10 10 -0
vt -1 1
v 162 10 -0
vt -16.2 1
v 172 10 -0
vt -17.2 1
f 33/60/7 32/56/7 34/61/7 35/62/7 36/63/7 37/64/7 

vn -1 0 -0
vt 3.7 0
v 0 10 37
vt 3.7 1
f 32/56/8 31/65/8 38/66/8 34/61/8 

vn 0 0 1
vt 17.2 0
v 172 10 37
vt 17.2 1
v 162 10 37
vt 16.2 1
v 10 10 37
vt 1 1
f 31/56/9 30/67/9 39/68/9 40/69/9 41/70/9 38/61/9 

vt -3.7 0
vn 1 0 -0
vt -3.7 1
f 30/71/10 33/56/10 37/61/10 39/72/10 

v 164.78 0 7.41841
vt -16.478 -0.741841
f 30/48/1 42/73/1 33/60/1

v 164.771 0 30.5666
vt -16.4771 -3.05666
f 30/48/1 43/74/1 42/73/1

v 164.346 0 32.1515
vt -16.4346 -3.21515
f 30/48/1 44/75/1 43/74/1

v 163.186 0 33.3117
vt -16.3186 -3.33117
f 30/48/1 45/76/1 44/75/1

v 161.601 0 33.7363
vt -16.1601 -3.37363
f 30/48/1 46/77/1 45/76/1

v 160.016 0 33.3117
vt -16.0016 -3.33117
f 30/48/1 47/78/1 46/77/1

f 30/48/1 7/21/1 47/78/1

f 30/48/1 16/19/1 7/21/1

v 158.856 0 32.1515
vt -15.8856 -3.21515
f 47/78/1 7/21/1 48/79/1

v 158.431 0 30.5666
vt -15.8431 -3.05666
f 48/79/1 7/21/1 49/80/1

v 156.944 0 7.41841
vt -15.6944 -0.741841
f 49/80/1 7/21/1 50/81/1

v 157.469 0 5.45933
vt -15.7469 -0.545933
f 7/21/1 51/82/1 50/81/1

v 158.903 0 4.02518
vt -15.8903 -0.402518
f 7/21/1 52/83/1 51/82/1

f 7/21/1 33/60/1 52/83/1

vt -1.11023 -0.815718
f 15/84/1 33/60/1 7/21/1

vt -0.966013 -0.671499
f 14/85/1 33/60/1 15/84/1

f 13/59/1 33/60/1 14/85/1

usemtl Wood_Cherry_Original
vt 0.0859601 0.0694444
vt 0.0573068 0.0694444
v 9.66013 -5 6.71499
vt 0.0573068 0
v 7.69007 -5 6.18712
vt 0.0859601 0
f 13/86/7 14/87/3 53/88/3 54/89/7 

vt 0.0286534 0.0694444
v 11.1023 -5 8.15718
vt 0.0286534 0
f 14/87/3 15/90/4 55/91/4 53/88/3 

vt 2.77556e-17 0.0694444
vn 1 0 -1.14939e-16
v 11.6302 -5 10.1272
vt 2.77556e-17 0
f 15/90/4 7/92/11 56/93/11 55/91/4 

vt 0.343841 0.0694444
vt 0.315187 0.0694444
v 11.1023 -5 12.0973
vt 0.315187 1.38778e-17
vt 0.343841 1.38778e-17
f 7/94/11 8/95/6 57/96/6 56/97/11 

vt 0.286534 0.0694444
vn 0.5 0 0.866025
v 9.66013 -5 13.5395
vt 0.286534 0
vt 0.315187 0
f 8/95/6 9/98/12 58/99/12 57/100/6 

vt 0.25788 0.0694444
vn -5.74694e-17 0 1
v 7.69007 -5 14.0674
vt 0.25788 0
f 9/98/12 6/101/13 59/102/13 58/99/12 

vt 0.229227 0.0694444
vn -0.5 0 0.866025
v 5.72 -5 13.5395
vt 0.229227 0
f 6/101/13 1/103/14 60/104/14 59/102/13 

vt 0.200574 0.0694444
vn -0.866025 0 0.5
v 4.27782 -5 12.0973
vt 0.200574 0
f 1/103/14 3/105/15 61/106/15 60/104/14 

vt 0.17192 0.0694444
vn -1 0 4.02286e-16
v 3.74994 -5 10.1272
vt 0.17192 0
f 3/105/15 10/107/16 62/108/16 61/106/15 

usemtl Carpet_Berber_Pattern_Gray
f 2/2/1 10/55/1 3/3/1

usemtl Wood_Cherry_Original
vt 0.143267 0.0694444
vn -0.866025 0 -0.5
v 4.27782 -5 8.15718
vt 0.143267 0
f 10/107/16 11/109/17 63/110/17 62/108/16 

vt 0.114614 0.0694444
vn -0.5 0 -0.866025
v 5.72 -5 6.71499
vt 0.114614 0
f 11/109/17 12/111/18 64/112/18 63/110/17 

vt 0.0859601 2.77556e-17
vt 0.114614 2.77556e-17
f 12/111/18 13/86/7 54/113/7 64/114/18 

vt -0.16153 -0.140656
vt -0.154199 -0.168018
vt -0.134168 -0.188048
vt -0.106806 -0.19538
vt -0.0794445 -0.188048
vt -0.0594141 -0.168018
vt -0.0520825 -0.140656
vt -0.0594141 -0.113294
vt -0.0794445 -0.0932638
vt -0.106806 -0.0859322
vt -0.134168 -0.0932638
vt -0.154199 -0.113294
f 56/115/1 57/116/1 58/117/1 59/118/1 60/119/1 61/120/1 62/121/1 63/122/1 64/123/1 54/124/1 53/125/1 55/126/1 

usemtl Carpet_Berber_Pattern_Gray
v 160.862 0 3.50025
vt -16.0862 -0.350025
f 52/83/1 33/60/1 65/127/1

v 162.821 0 4.02518
vt -16.2821 -0.402518
f 65/127/1 33/60/1 66/128/1

v 164.256 0 5.45933
vt -16.4256 -0.545933
f 66/128/1 33/60/1 67/129/1

f 67/129/1 33/60/1 42/73/1

usemtl FrontColor
vt -156.944 -7.41841
vt -157.469 -5.45933
vt -158.903 -4.02518
vt -160.862 -3.50025
vt -162.821 -4.02518
vt -164.256 -5.45933
vt -164.78 -7.41841
v 164.256 0 9.37748
vt -164.256 -9.37748
v 162.821 0 10.8116
vt -162.821 -10.8116
v 160.862 0 11.3366
vt -160.862 -11.3366
v 158.903 0 10.8116
vt -158.903 -10.8116
v 157.469 0 9.37748
vt -157.469 -9.37748
f 50/130/1 51/131/1 52/132/1 65/133/1 66/134/1 67/135/1 42/136/1 68/137/1 69/138/1 70/139/1 71/140/1 72/141/1 

usemtl Wood_Cherry_Original
vt 0.341923 0.0694444
vn -1 0 1.14939e-16
vt 0.31343 0.0694444
v 157.469 -5 5.45933
vt 0.31343 0
v 156.944 -5 7.41841
vt 0.341923 0
f 50/142/19 51/143/17 73/144/17 74/145/19 

vt 0.284936 0.0694444
v 158.903 -5 4.02518
vt 0.284936 0
f 51/143/17 52/146/18 75/147/18 73/144/17 

vt 0.256443 0.0694444
vn 1.63788e-15 0 -1
v 160.862 -5 3.50025
vt 0.256443 0
f 52/146/18 65/148/20 76/149/20 75/147/18 

vt 0.227949 0.0694444
v 162.821 -5 4.02518
vt 0.227949 0
f 65/148/20 66/150/3 77/151/3 76/149/20 

vt 0.199455 0.0694444
v 164.256 -5 5.45933
vt 0.199455 0
f 66/150/3 67/152/4 78/153/4 77/151/3 

vt 0.170962 0.0694444
v 164.78 -5 7.41841
vt 0.170962 0
f 67/152/4 42/154/10 79/155/10 78/153/4 

vt 0.142468 0.0694444
v 164.256 -5 9.37748
vt 0.142468 0
f 42/154/10 68/156/6 80/157/6 79/155/10 

usemtl Carpet_Berber_Pattern_Gray
v 164.346 0 28.9818
vt -16.4346 -2.89818
vt -16.4256 -0.937748
f 81/158/1 68/159/1 42/73/1

v 163.186 0 27.8216
vt -16.3186 -2.78216
f 82/160/1 68/159/1 81/158/1

vt -16.2821 -1.08116
f 82/160/1 69/161/1 68/159/1

v 161.601 0 27.3969
vt -16.1601 -2.73969
f 83/162/1 69/161/1 82/160/1

vt -16.0862 -1.13366
f 83/162/1 70/163/1 69/161/1

v 160.016 0 27.8216
vt -16.0016 -2.78216
f 84/164/1 70/163/1 83/162/1

vt -15.8903 -1.08116
f 84/164/1 71/165/1 70/163/1

v 158.856 0 28.9818
vt -15.8856 -2.89818
f 85/166/1 71/165/1 84/164/1

f 49/80/1 71/165/1 85/166/1

vt -15.7469 -0.937748
f 71/165/1 49/80/1 72/167/1

f 49/80/1 50/81/1 72/167/1

usemtl Wood_Cherry_Original
vt 0.0284936 0.0694444
vt -1.11022e-16 0.0694444
vt -1.11022e-16 0
v 157.469 -5 9.37748
vt 0.0284936 0
f 72/168/15 50/169/19 74/170/19 86/171/15 

vt -2.17978 -0.103033
vt -2.18707 -0.075824
vt -2.20699 -0.0559053
vt -2.2342 -0.0486146
vt -2.26141 -0.0559053
vt -2.28133 -0.075824
vt -2.28862 -0.103033
vt -2.28133 -0.130243
v 162.821 -5 10.8116
vt -2.26141 -0.150161
v 160.862 -5 11.3366
vt -2.2342 -0.157452
v 158.903 -5 10.8116
vt -2.20699 -0.150161
vt -2.18707 -0.130243
f 74/172/1 73/173/1 75/174/1 76/175/1 77/176/1 78/177/1 79/178/1 80/179/1 87/180/1 88/181/1 89/182/1 86/183/1 

vt 0.113974 0.0694444
vt 0.113974 0
f 68/156/6 69/184/12 87/185/12 80/157/6 

vt 0.0854809 0.0694444
vt 0.0854809 0
f 69/184/12 70/186/9 88/187/9 87/185/12 

vt 0.0569872 0.0694444
vt 0.0569872 0
f 70/186/9 71/188/14 89/189/14 88/187/9 

f 71/188/14 72/168/15 86/171/15 89/189/14 

usemtl FrontColor
vt -158.431 -30.5666
vt -158.856 -28.9818
vt -160.016 -27.8216
vt -161.601 -27.3969
vt -163.186 -27.8216
vt -164.346 -28.9818
vt -164.771 -30.5666
vt -164.346 -32.1515
vt -163.186 -33.3117
vt -161.601 -33.7363
vt -160.016 -33.3117
vt -158.856 -32.1515
f 49/190/1 85/191/1 84/192/1 83/193/1 82/194/1 81/195/1 43/196/1 44/197/1 45/198/1 46/199/1 47/200/1 48/201/1 

usemtl Wood_Cherry_Original
vt 0.276607 0.0694444
vt 0.253556 0.0694444
v 158.856 -5 28.9818
vt 0.253556 0
v 158.431 -5 30.5666
vt 0.276607 0
f 49/202/8 85/203/17 90/204/17 91/205/8 

vt 0.230506 0.0694444
v 160.016 -5 27.8216
vt 0.230506 0
f 85/203/17 84/206/18 92/207/18 90/204/17 

vt 0.207455 0.0694444
vn 2.24131e-15 0 -1
v 161.601 -5 27.3969
vt 0.207455 0
f 84/206/18 83/208/21 93/209/21 92/207/18 

vt 0.184405 0.0694444
v 163.186 -5 27.8216
vt 0.184405 0
f 83/208/21 82/210/3 94/211/3 93/209/21 

vt 0.161354 0.0694444
v 164.346 -5 28.9818
vt 0.161354 -1.38778e-17
vt 0.184405 -1.38778e-17
f 82/210/3 81/212/4 95/213/4 94/214/3 

vt 0.138304 0.0694444
vn 1 0 -5.74694e-16
v 164.771 -5 30.5666
vt 0.138304 0
vt 0.161354 0
f 81/212/4 43/215/22 96/216/22 95/217/4 

usemtl Carpet_Berber_Pattern_Gray
f 81/158/1 42/73/1 43/74/1

usemtl Wood_Cherry_Original
vt 0.115253 0.0694444
v 164.346 -5 32.1515
vt 0.115253 0
f 43/215/22 44/218/6 97/219/6 96/216/22 

vt 0.0922023 0.0694444
v 163.186 -5 33.3117
vt 0.0922023 0
f 44/218/6 45/220/12 98/221/12 97/219/6 

vt 0.0691518 0.0694444
v 161.601 -5 33.7363
vt 0.0691518 -1.38778e-17
vt 0.0922023 -1.38778e-17
f 45/220/12 46/222/9 99/223/9 98/224/12 

vt 0.0461012 0.0694444
v 160.016 -5 33.3117
vt 0.0461012 0
vt 0.0691518 0
f 46/222/9 47/225/14 100/226/14 99/227/9 

vt 0.0230506 0.0694444
v 158.856 -5 32.1515
vt 0.0230506 0
f 47/225/14 48/228/15 101/229/15 100/226/14 

vt 0 0.0694444
f 48/228/15 49/230/8 91/56/8 101/229/15 

vt -2.20044 -0.424536
vt -2.20633 -0.402525
vt -2.22245 -0.386411
vt -2.24446 -0.380513
vt -2.26647 -0.386411
vt -2.28259 -0.402525
vt -2.28848 -0.424536
vt -2.28259 -0.446548
vt -2.26647 -0.462662
vt -2.24446 -0.46856
vt -2.22245 -0.462662
vt -2.20633 -0.446548
f 91/231/1 90/232/1 92/233/1 93/234/1 94/235/1 95/236/1 96/237/1 97/238/1 98/239/1 99/240/1 100/241/1 101/242/1 

usemtl FrontColor
vt 172 0
vn 0 1 -0
vt 162 0
vt 162 -37
vt 172 -37
f 37/243/23 36/244/23 40/245/23 39/246/23 

usemtl Carpet_Berber_Pattern_Gray
v 162 15 -0
vt -16.2 1.5
v 162 35 -0
vt -16.2 3.5
v 172 35 -0
vt -17.2 3.5
f 37/64/7 36/63/7 102/247/7 103/248/7 104/249/7 

usemtl Leather_Blue
vt -2.7 0.166667
vt -0.166667 0.166667
v 10 15 -0
vt -0.166667 0.25
vt -2.7 0.25
f 36/250/7 35/251/7 105/252/7 102/253/7 

usemtl FrontColor
vt 10 -37
vt 10 0
f 41/254/23 40/245/23 36/244/23 35/255/23 

usemtl Leather_Blue
vt 0.166667 0.166667
vt 2.7 0.166667
v 162 15 37
vt 2.7 0.25
v 10 15 37
vt 0.166667 0.25
f 41/256/9 40/257/9 106/258/9 107/259/9 

usemtl Carpet_Berber_Pattern_Gray
v 172 35 37
vt 17.2 3.5
v 162 35 37
vt 16.2 3.5
vt 16.2 1.5
f 40/69/9 39/68/9 108/260/9 109/261/9 106/262/9 

vt 0 3.5
vt -3.7 3.5
f 39/72/10 37/61/10 104/263/10 108/264/10 

vt 16.2 0
v 162 35 10
vt 16.2 -1
vt 16.2 -3.7
vt 17.2 -3.7
f 104/67/23 103/265/23 110/266/23 109/267/23 108/268/23 

usemtl FrontColor
vt 0 15
v 162 15 10
vt 10 15
vt 10 35
vt 0 35
f 102/269/8 111/270/8 110/271/8 103/272/8 

vt 0 10
vt 37 10
vt 37 15
f 36/273/8 40/274/8 106/275/8 111/270/8 102/269/8 

usemtl Leather_Blue
vt 2.7 -0.616667
vt 2.7 -0.166667
v 10 15 10
vt 0.166667 -0.166667
vt 0.166667 -0.616667
f 106/276/23 111/277/23 112/278/23 107/279/23 

usemtl Carpet_Berber_Pattern_Gray
vt 3.7 3.5
vt 1 3.5
vt 1 1.5
vt 3.7 1.5
f 109/280/8 110/281/8 111/282/8 106/283/8 

usemtl Leather_Blue
vt 2.7 0.583333
v 162 45 10
vt 2.7 0.75
v 10 45 10
vt 0.166667 0.75
v 10 35 10
vt 0.166667 0.583333
f 112/259/9 111/258/9 110/284/9 113/285/9 114/286/9 115/287/9 

usemtl FrontColor
vt 10 -10
vt 162 -10
f 105/255/23 112/288/23 111/289/23 102/244/23 

vt -37 10
vt -10 15
vt -37 15
f 41/290/10 35/273/10 105/269/10 112/291/10 107/292/10 

vt 0 -37
f 38/293/23 41/254/23 35/255/23 34/56/23 

usemtl Carpet_Berber_Pattern_Gray
v 10 35 37
v 0 35 37
f 38/61/9 41/70/9 107/282/9 116/281/9 117/263/9 

vt -3.7 1.5
vt -1 1.5
vt -1 3.5
f 107/294/10 112/295/10 115/296/10 116/264/10 

usemtl FrontColor
v 10 35 -0
vt -10 35
f 118/272/10 115/297/10 112/291/10 105/269/10 

usemtl Carpet_Berber_Pattern_Gray
vt 1 -3.7
vt 1 -1
vt 1 0
v 0 35 -0
f 117/52/23 116/298/23 115/299/23 118/300/23 119/56/23 

usemtl Leather_Blue
v 10 45 -0
vt 0 0.75
vt 0 0.583333
f 120/301/8 118/302/8 115/287/8 114/286/8 

vt -0.166667 0.583333
vt -0.166667 0.75
v 162 45 -0
vt -2.7 0.75
vt -2.7 0.583333
f 102/253/7 105/252/7 118/303/7 120/304/7 121/305/7 103/306/7 

usemtl Carpet_Berber_Pattern_Gray
f 35/62/7 34/61/7 119/263/7 118/296/7 105/295/7 

f 34/61/8 38/66/8 117/280/8 119/263/8 

usemtl Leather_Blue
vt 0.166667 0
vt 2.7 0
f 120/307/23 114/278/23 113/277/23 121/308/23 

f 113/304/10 110/303/10 103/302/10 121/301/10 

usemtl Wood_Cherry_Original
vt 0.0938722 0.0694444
vt 0.0704041 0.0694444
v 4.95549 -5 30.0741
vt 0.0704041 0
v 5.38784 -5 31.6877
vt 0.0938722 0
f 24/309/15 2/310/8 122/311/8 123/312/15 

vt 0.0469361 0.0694444
v 5.38784 -5 28.4606
vt 0.0469361 0
f 2/310/8 4/313/17 124/314/17 122/311/8 

vt 0.023468 0.0694444
v 6.56904 -5 27.2794
vt 0.023468 0
f 4/313/17 5/315/18 125/316/18 124/314/17 

f 5/315/18 19/230/2 26/56/2 125/316/18 

vt -0.113647 -0.372875
vt -0.136057 -0.37888
vt -0.152463 -0.395286
vt -0.158468 -0.417696
vt -0.152463 -0.440106
v 9.79612 -5 32.8688
vt -0.136057 -0.456512
v 8.18258 -5 33.3012
vt -0.113647 -0.462517
v 6.56904 -5 32.8688
vt -0.0912366 -0.456512
vt -0.0748311 -0.440106
vt -0.0688263 -0.417696
vt -0.0748311 -0.395286
vt -0.0912366 -0.37888
f 26/317/1 25/318/1 27/319/1 28/320/1 29/321/1 126/322/1 127/323/1 128/324/1 123/325/1 122/326/1 124/327/1 125/328/1 

vt 0.164276 0.0694444
vt 0.164276 0
f 20/46/6 21/329/12 126/330/12 29/47/6 

vt 0.140808 0.0694444
vt 0.140808 2.77556e-17
vt 0.164276 2.77556e-17
f 21/329/12 22/331/9 127/332/9 126/333/12 

vt 0.11734 0.0694444
vt 0.11734 0
vt 0.140808 0
f 22/331/9 23/334/14 128/335/14 127/336/9 

f 23/334/14 24/309/15 123/312/15 128/335/14 

